<svg width="100" height="100" viewBox="0 0 100 100" fill="none" xmlns="http://www.w3.org/2000/svg">
<path d="M89.5833 22.9167H10.4167C5.81459 22.9167 2.08334 26.6479 2.08334 31.25V64.5834C2.08334 69.1854 5.81459 72.9167 10.4167 72.9167H50L66.6667 81.25L62.5 72.9167H89.5833C94.1854 72.9167 97.9167 69.1854 97.9167 64.5834V31.25C97.9167 26.6479 94.1854 22.9167 89.5833 22.9167Z" fill="#A64A7B"/>
<path d="M84.2563 39.5833C84.3417 39.5833 84.5313 39.5938 84.8334 39.6625C85.5459 39.8229 85.9979 40.075 86.5417 41.0917C87.1875 42.2563 87.5 43.7646 87.5 45.7063C87.5 48.6188 86.8396 51.2042 85.4729 53.6271C84.0021 56.25 82.9271 56.25 82.4104 56.25C82.325 56.25 82.1354 56.2396 81.8333 56.1708C81.1208 56.0104 80.6688 55.7583 80.1479 54.7833C79.4958 53.5875 79.1667 52.0063 79.1667 50.0896C79.1667 47.175 79.8208 44.6104 81.1729 42.2458C82.6896 39.5833 83.7875 39.5833 84.2563 39.5833ZM84.2563 33.3333C80.7771 33.3333 77.9521 35.2729 75.7417 39.1521C73.8583 42.4479 72.9167 46.0938 72.9167 50.0896C72.9167 53.0771 73.4958 55.6354 74.6563 57.7688C75.9604 60.2125 77.8813 61.6854 80.4542 62.2688C81.1417 62.4229 81.7938 62.5 82.4104 62.5C85.925 62.5 88.75 60.5604 90.925 56.6813C92.8083 53.3458 93.75 49.7 93.75 45.7063C93.75 42.6813 93.1708 40.1604 92.0104 38.0646C90.7063 35.6208 88.7854 34.1479 86.2125 33.5646C85.525 33.4104 84.8729 33.3333 84.2563 33.3333ZM59.2563 39.5833C59.3417 39.5833 59.5313 39.5938 59.8146 39.6583C60.5084 39.8167 61.0042 40.0896 61.5417 41.0938C62.1875 42.2563 62.5 43.7646 62.5 45.7063C62.5 48.6188 61.8396 51.2042 60.4729 53.6271C59.0021 56.25 57.9271 56.25 57.4104 56.25C57.325 56.25 57.1354 56.2396 56.8334 56.1708C56.1208 56.0104 55.6688 55.7583 55.1479 54.7833C54.4958 53.5875 54.1667 52.0063 54.1667 50.0896C54.1667 47.175 54.8208 44.6104 56.1729 42.2458C57.6896 39.5833 58.7875 39.5833 59.2563 39.5833ZM59.2563 33.3333C55.7771 33.3333 52.9521 35.2729 50.7417 39.1521C48.8583 42.4479 47.9167 46.0938 47.9167 50.0896C47.9167 53.0771 48.4958 55.6354 49.6563 57.7688C50.9604 60.2125 52.8813 61.6854 55.4542 62.2688C56.1417 62.4229 56.7938 62.5 57.4104 62.5C60.925 62.5 63.75 60.5604 65.925 56.6813C67.8083 53.3458 68.75 49.7 68.75 45.7063C68.75 42.6813 68.1708 40.1604 67.0104 38.0646C65.7063 35.6208 63.75 34.1479 61.2125 33.5646C60.525 33.4104 59.8729 33.3333 59.2563 33.3333ZM38.5417 66.6667C37.6646 66.6667 36.8083 66.2958 36.2021 65.6146C31.6271 60.45 28.8167 53.6667 27.1604 48.2333C24.7771 53.275 21.5604 59.7229 18.3042 65.1479C17.6604 66.2208 16.4417 66.7979 15.1979 66.6375C13.9563 66.4646 12.9375 65.5688 12.6104 64.3604C8.0021 47.4292 6.34585 35.2979 6.27918 34.7896C6.05002 33.0813 7.25002 31.5083 8.95835 31.2771C10.6896 31.0521 12.2417 32.2458 12.4729 33.9563C12.4875 34.0583 13.6625 42.6583 16.7084 55.2042C21.3292 46.4375 25.2042 37.4229 25.2542 37.3083C25.8104 36.0167 27.1688 35.2479 28.5458 35.4438C29.9375 35.6313 31.0333 36.725 31.2229 38.1167C31.2375 38.225 32.3521 46.0854 35.9 53.6396C37.3979 38.7104 41.8854 31.0583 42.1125 30.6792C43.0021 29.1979 44.925 28.7188 46.4 29.6063C47.8813 30.4938 48.3604 32.4146 47.4729 33.8938C47.4208 33.9854 41.6667 43.9896 41.6667 63.5417C41.6667 64.8396 40.8625 66.0042 39.65 66.4625C39.2875 66.6 38.9146 66.6667 38.5417 66.6667Z" fill="white"/>
</svg>
