<svg width="100" height="62" viewBox="0 0 100 62" fill="none" xmlns="http://www.w3.org/2000/svg">
<path fill-rule="evenodd" clip-rule="evenodd" d="M50 50.6773C77.6143 50.6773 100 39.3324 100 25.3387C100 11.345 77.6143 6.10352e-05 50 6.10352e-05C22.3863 6.10352e-05 0 11.345 0 25.3387C0 39.3324 22.3863 50.6773 50 50.6773Z" fill="#6E81B6"/>
<path fill-rule="evenodd" clip-rule="evenodd" d="M60.1331 33.5285L62.6133 20.764C63.1731 17.883 62.7076 15.7342 61.2305 14.3763C59.7994 13.0624 57.3701 12.4234 53.8041 12.4234H49.5089L50.7375 6.09914C50.7605 5.98143 50.7572 5.86009 50.7278 5.74382C50.6984 5.62755 50.6436 5.51923 50.5673 5.42664C50.4911 5.33405 50.3953 5.25949 50.2869 5.2083C50.1784 5.1571 50.06 5.13055 49.94 5.13055H44.0118C43.6225 5.13055 43.2881 5.40686 43.2137 5.78897L40.5795 19.3401C40.34 17.8153 39.7499 16.5045 38.8055 15.4228C37.0667 13.4325 34.3163 12.4234 30.63 12.4234H19.14C18.7506 12.4234 18.4163 12.6997 18.3419 13.0812L13.0111 40.5111C12.9645 40.75 13.0268 40.9954 13.1816 41.1829C13.3357 41.3709 13.5655 41.4791 13.8092 41.4791H19.7839C20.1733 41.4791 20.5076 41.2028 20.582 40.8201L21.8716 34.1857H26.3191C28.6529 34.1857 30.6143 33.933 32.1452 33.4348C33.7105 32.9257 35.1513 32.0623 36.421 30.8736C37.447 29.9311 38.2946 28.8754 38.947 27.7369L37.8823 33.2171C37.8357 33.4559 37.898 33.7026 38.0528 33.8888C38.207 34.0769 38.4373 34.1851 38.6804 34.1851H44.6086C44.9979 34.1851 45.3323 33.9088 45.4067 33.5273L48.3324 18.4707H52.4002C54.1336 18.4707 54.6415 18.8159 54.7799 18.964C54.9051 19.0995 55.1651 19.5765 54.873 21.0802L52.5151 33.2165C52.4925 33.3342 52.4961 33.4554 52.5257 33.5715C52.5554 33.6876 52.6103 33.7957 52.6865 33.8882C52.7627 33.9806 52.8584 34.0551 52.9667 34.1063C53.075 34.1576 53.1933 34.1842 53.3131 34.1845H59.3357C59.5241 34.1849 59.7068 34.1196 59.8523 33.9999C59.9979 33.8802 60.0972 33.7135 60.1331 33.5285ZM32.6488 22.9817C32.2764 24.8953 31.575 26.2599 30.5629 27.038C29.5351 27.8306 27.8911 28.2321 25.6764 28.2321H23.0282L24.943 18.3782H28.3669C30.8821 18.3782 31.8954 18.9157 32.3024 19.3661C32.8665 19.9913 32.9862 21.2422 32.6488 22.9817ZM85.1041 15.4228C83.3659 13.4325 80.6155 12.4234 76.9292 12.4234H65.4392C65.0492 12.4234 64.7155 12.6997 64.6411 13.0812L59.3109 40.5111C59.2637 40.75 59.326 40.9954 59.4808 41.1829C59.6355 41.3703 59.8659 41.4791 60.1077 41.4791H66.0831C66.4731 41.4791 66.8068 41.2028 66.8812 40.8201L68.1708 34.1857H72.6189C74.9533 34.1857 76.9129 33.933 78.4444 33.4348C80.0103 32.9257 81.4511 32.0623 82.7201 30.8736C83.7794 29.9008 84.6507 28.8071 85.3109 27.6263C85.9711 26.4455 86.4445 25.1286 86.7209 23.7114C87.3998 20.2162 86.8563 17.4277 85.1041 15.4228ZM79.2872 22.9817C78.9141 24.8953 78.2128 26.2599 77.2019 27.038C76.1734 27.8306 74.5295 28.2321 72.3154 28.2321H69.6666L71.5808 18.3782H75.0053C77.5205 18.3782 78.5338 18.9157 78.9413 19.3661C79.5042 19.9913 79.6245 21.2422 79.2872 22.9817Z" fill="white"/>
<path fill-rule="evenodd" clip-rule="evenodd" d="M28.197 17.5651C30.4667 17.5651 31.98 17.9841 32.7364 18.8221C33.4921 19.6601 33.6723 21.099 33.2769 23.1372C32.8633 25.26 32.0677 26.7751 30.8887 27.6832C29.7097 28.5913 27.9152 29.0448 25.5064 29.0448H21.8715L24.1025 17.5651H28.197ZM13.6385 40.666H19.6133L21.0311 33.3738H26.1491C28.4074 33.3738 30.2653 33.1362 31.7236 32.6616C33.182 32.187 34.5079 31.3919 35.7008 30.2752C36.702 29.3556 37.5122 28.3398 38.1325 27.2298C38.7523 26.1197 39.1924 24.8954 39.453 23.5562C40.0854 20.3046 39.6084 17.7719 38.0231 15.958C36.4384 14.1436 33.9166 13.2367 30.46 13.2367H18.97L13.6385 40.666ZM43.8413 5.94391H49.7695L48.3523 13.2367H53.6342C56.9559 13.2367 59.2492 13.8159 60.5104 14.975C61.7716 16.134 62.1495 18.0125 61.6453 20.6093L59.1651 33.3738H53.1426L55.5006 21.2369C55.7684 19.856 55.6705 18.9146 55.2043 18.4122C54.7382 17.9103 53.746 17.6588 52.2296 17.6588H47.4919L44.438 33.3738H38.5098L43.8413 5.94391ZM74.8354 17.5651C77.1052 17.5651 78.6179 17.9841 79.3749 18.8221C80.1306 19.6601 80.3102 21.099 79.9148 23.1372C79.5024 25.26 78.7068 26.7751 77.5272 27.6832C76.3488 28.5913 74.5537 29.0448 72.1461 29.0448H68.5112L70.7416 17.5651H74.8354ZM60.2758 40.666H66.2512L67.6684 33.3738H72.7864C75.0452 33.3738 76.9032 33.1362 78.3615 32.6616C79.8199 32.187 81.1458 31.3919 82.3387 30.2752C83.3399 29.3556 84.1501 28.3398 84.7698 27.2298C85.3895 26.1197 85.8303 24.8954 86.0915 23.5562C86.7233 20.3046 86.2463 17.7719 84.6616 15.958C83.0757 14.1436 80.5545 13.2367 77.0979 13.2367H65.6079L60.2758 40.666Z" fill="black"/>
</svg>
