<svg width="100" height="105" viewBox="0 0 100 105" fill="none" xmlns="http://www.w3.org/2000/svg">
<path d="M50 84.6666C73.0118 84.6666 91.6666 66.0118 91.6666 43C91.6666 19.9881 73.0118 1.33331 50 1.33331C26.9881 1.33331 8.33331 19.9881 8.33331 43C8.33331 66.0118 26.9881 84.6666 50 84.6666Z" fill="#1976D2"/>
<path d="M62.7083 37.6458C62.7083 37.6458 59.1041 48.9375 58.8333 49.8958C58.7291 48.9375 56.1041 28.6458 56.1041 28.6458C49.9583 28.6458 46.6875 33 44.9583 37.6458C44.9583 37.6458 40.5833 48.9791 40.2291 49.9375C40.2083 49.0416 39.5625 37.7708 39.5625 37.7708C39.1875 32.1041 34.0208 28.6666 29.8333 28.6666L34.875 59.4166C41.3125 59.3958 44.7708 55.0416 46.5833 50.4166C46.5833 50.4166 50.4375 40.4166 50.6041 39.9583C50.6458 40.3958 53.375 59.4166 53.375 59.4166C59.8125 59.4166 63.2916 55.3333 65.1666 50.875L74.1666 28.6458C67.7916 28.6458 64.4375 33 62.7083 37.6458Z" fill="white"/>
</svg>
